<?xml version="1.0" encoding="UTF-8"?>
<svg id="Layer_1" data-name="Layer 1" xmlns="http://www.w3.org/2000/svg" viewBox="0 0 784.34 141.73">
  <defs>
    <style>
      .cls-1 {
        fill: #3476bc;
      }

      .cls-1, .cls-2 {
        stroke-width: 0px;
      }

      .cls-2 {
        fill: #414242;
      }
    </style>
  </defs>
  <g id="Init_Cloud_LOGO_OFFICIAL_VERTICAL">
    <g id="Init_Cloud_LOGO_OFFICIAL_VERTICAL_TEXT">
      <g>
        <path class="cls-2" d="m209.84,99.06c0,1.54.04,2.98.13,4.3.09,1.32.26,2.41.53,3.24.26.84.65,1.55,1.16,2.12.51.57,1.2,1.07,2.08,1.49.88.42,1.96.78,3.24,1.09v4.37h-34.73v-4.37c1.63-.44,2.92-.91,3.87-1.42.95-.51,1.65-1.21,2.12-2.12.46-.9.76-2.05.89-3.44.13-1.39.2-3.14.2-5.26v-57.1c0-2.12-.06-3.86-.16-5.23-.11-1.36-.4-2.5-.86-3.41-.46-.9-1.17-1.62-2.12-2.15-.95-.53-2.26-1.01-3.94-1.45v-4.37h34.73v4.37c-1.81.49-3.14,1-4,1.55-.86.55-1.51,1.22-1.95,2.02-.44.79-.75,1.83-.92,3.11-.18,1.28-.26,3.15-.26,5.62v57.04Z"/>
        <path class="cls-2" d="m300.87,115.67h-32.09v-4.37c2.03-.48,3.44-1.2,4.23-2.15.79-.95,1.33-2.23,1.62-3.84.29-1.61.43-4.51.43-8.7v-17.67c0-3.13-.07-5.7-.2-7.71s-.34-3.65-.63-4.93c-.29-1.28-.69-2.35-1.19-3.21-.51-.86-1.07-1.56-1.69-2.12-.62-.55-1.32-.96-2.12-1.22-.79-.26-1.81-.4-3.04-.4-1.68,0-3.42.52-5.23,1.55-1.81,1.04-3.33,2.47-4.56,4.3-1.24,1.83-1.85,3.78-1.85,5.86v25.47c0,4.19.13,7.1.39,8.73.26,1.63.81,2.92,1.62,3.87.82.95,2.26,1.67,4.33,2.15v4.37h-31.95v-4.37c2.12-.57,3.58-1.32,4.4-2.25.82-.93,1.37-2.18,1.65-3.77s.43-4.48.43-8.67v-27.19c0-3.26-.06-5.68-.17-7.25-.11-1.56-.38-2.82-.79-3.77s-1.06-1.72-1.92-2.32c-.86-.59-2.35-1.11-4.47-1.55v-4.5l18.12-.53h8.34l-.99,9.53.79.2c2.73-2.42,5.14-4.33,7.21-5.72,2.07-1.39,4.25-2.49,6.52-3.31s4.66-1.22,7.18-1.22c3.62,0,6.62.52,9,1.55,2.38,1.04,4.31,2.55,5.79,4.53s2.54,4.41,3.18,7.28c.64,2.87.96,6.2.96,9.99v24.22c0,1.94.03,3.76.1,5.46.07,1.7.23,3.06.5,4.07.26,1.02.63,1.84,1.09,2.48.46.64,1.11,1.18,1.95,1.62.84.44,1.85.82,3.05,1.12v4.37Z"/>
        <g>
          <rect class="cls-1" x="317.67" y="23.63" width="18.13" height="16.21"/>
          <path class="cls-2" d="m339.96,110.24c-.75-.4-1.32-.84-1.72-1.32-.4-.48-.72-1.01-.96-1.59-.24-.57-.43-1.22-.56-1.95-.13-.73-.23-1.76-.3-3.11-.07-1.35-.1-3.25-.1-5.72v-47.05h-8.27l-18.19.53v4.5c1.5.31,2.72.67,3.67,1.09.95.42,1.7,1.03,2.25,1.82.55.79.93,1.85,1.12,3.18.2,1.32.3,3.07.3,5.23v30.77c0,4.19-.14,7.08-.43,8.67s-.84,2.85-1.65,3.77c-.82.93-2.31,1.68-4.47,2.25v4.37h32.28v-4.37c-1.24-.31-2.23-.66-2.98-1.06Z"/>
        </g>
        <path class="cls-2" d="m398.58,107.73c-3.88,3.31-7.41,5.64-10.58,6.98-3.18,1.35-6.53,2.02-10.06,2.02-6.57,0-11.48-1.78-14.72-5.33-3.24-3.55-4.86-8.92-4.86-16.11v-36.99h-8.27v-4.57c2.69-.44,4.67-1.1,5.95-1.99,1.28-.88,2.27-2.06,2.98-3.54.71-1.48,1.27-3.41,1.69-5.79.42-2.38.74-5.36.96-8.93h15.81v16.54h18.86v8.27h-18.86v29.84c0,4.99.23,8.67.7,11.05.46,2.38,1.25,4.14,2.35,5.26,1.1,1.12,2.47,1.69,4.1,1.69,1.23,0,2.34-.11,3.31-.33.97-.22,1.99-.62,3.07-1.19,1.08-.57,2.22-1.39,3.41-2.45l4.17,5.56Z"/>
      </g>
      <g>
        <path class="cls-2" d="m498.7,29.28v18.33h-6.55c-1.06-3.84-2.4-6.89-4.03-9.16-1.63-2.27-3.53-3.89-5.69-4.86-2.16-.97-4.76-1.46-7.81-1.46-4.54,0-8.59,1.51-12.14,4.54-3.55,3.02-6.34,7.56-8.37,13.63-2.03,6.07-3.04,13.4-3.04,22s.84,16.02,2.51,22.13c1.67,6.11,4.15,10.72,7.41,13.83,3.26,3.11,7.28,4.67,12.04,4.67,3.62,0,6.57-.52,8.86-1.55,2.29-1.04,4.22-2.68,5.79-4.93,1.57-2.25,3.05-5.56,4.47-9.93h6.55v18.93c-4.15,1.1-8.39,1.93-12.74,2.48-4.34.55-9.12.83-14.32.83-11.2,0-19.67-3.79-25.4-11.38-5.73-7.58-8.6-18.9-8.6-33.95,0-9.44,1.49-17.71,4.47-24.81,2.98-7.1,7.35-12.59,13.13-16.48,5.78-3.88,12.68-5.82,20.71-5.82,4.01,0,7.72.21,11.11.63,3.39.42,7.28,1.2,11.64,2.35Z"/>
        <path class="cls-2" d="m530.06,101.14c0,3.79.18,6.43.53,7.9.35,1.48,1.02,2.6,2.02,3.38.99.77,2.61,1.45,4.86,2.01v3.24h-26.26v-3.24c2.21-.57,3.74-1.17,4.6-1.79.86-.62,1.48-1.35,1.85-2.22.37-.86.64-2.03.79-3.51.15-1.48.23-3.41.23-5.79v-55.38c0-4.23-.03-7.19-.1-8.87-.07-1.67-.24-3.1-.53-4.27-.29-1.17-.69-2.09-1.19-2.75-.51-.66-1.19-1.19-2.05-1.59-.86-.4-2.41-.79-4.66-1.19v-3.44l15.94-.66h3.97v78.15Z"/>
        <path class="cls-2" d="m577.96,118.74c-9.17,0-16.18-2.7-21-8.11-4.83-5.4-7.24-13.4-7.24-23.99,0-7.28,1.27-13.43,3.8-18.46,2.54-5.03,6.01-8.77,10.42-11.22,4.41-2.45,9.44-3.67,15.08-3.67,9.44,0,16.58,2.75,21.43,8.24,4.85,5.49,7.28,13.38,7.28,23.65,0,7.32-1.21,13.5-3.64,18.53-2.43,5.03-5.87,8.79-10.32,11.28-4.46,2.49-9.72,3.74-15.81,3.74Zm-15.75-33.48c0,9.09,1.44,16.07,4.33,20.94,2.89,4.87,7.02,7.31,12.4,7.31,2.95,0,5.47-.72,7.54-2.15,2.07-1.43,3.76-3.37,5.06-5.79,1.3-2.43,2.24-5.24,2.81-8.44.57-3.2.86-6.54.86-10.02,0-6.49-.72-11.87-2.15-16.15-1.43-4.28-3.39-7.42-5.86-9.43-2.47-2.01-5.29-3.01-8.47-3.01-5.34,0-9.43,2.31-12.27,6.94-2.85,4.63-4.27,11.23-4.27,19.79Z"/>
        <path class="cls-2" d="m619.51,54.42h18.85v33.68c0,5.16.2,9.09.59,11.78.4,2.69.99,4.72,1.79,6.09.79,1.37,1.92,2.52,3.37,3.44,1.45.93,3.46,1.39,6.02,1.39,1.67,0,3.28-.33,4.83-.99,1.54-.66,3.26-1.82,5.16-3.47,1.9-1.66,3.25-3.3,4.07-4.93.82-1.63,1.22-3.53,1.22-5.69v-24.81c0-2.52-.07-4.41-.2-5.69-.13-1.28-.35-2.3-.66-3.07-.31-.77-.67-1.4-1.09-1.89-.42-.48-1.02-.92-1.79-1.32-.77-.4-2.02-.81-3.74-1.26v-3.24h18.85v45.19c0,3.4.07,5.85.2,7.35s.42,2.69.86,3.57c.44.88,1.13,1.6,2.05,2.15.93.55,2.58,1.07,4.96,1.55v3.44l-15.15.66h-4.04l.4-10.85-.99-.26c-3.66,3.97-7.16,6.88-10.49,8.73-3.33,1.85-6.67,2.78-10.02,2.78-4.01,0-7.32-.79-9.92-2.38-2.6-1.59-4.54-3.96-5.82-7.11-1.28-3.16-1.92-7.6-1.92-13.34v-25.01c0-3.71-.14-6.25-.43-7.64-.29-1.39-.84-2.49-1.65-3.31-.82-.82-2.59-1.58-5.32-2.28v-3.24Z"/>
        <path class="cls-2" d="m740.57,45.76c0-4.23-.03-7.19-.1-8.87-.07-1.67-.24-3.1-.53-4.27-.29-1.17-.69-2.09-1.19-2.75-.51-.66-1.19-1.19-2.05-1.59-.86-.4-2.41-.79-4.66-1.19v-3.44l16.01-.66h3.9v76.62c0,3.44.07,5.9.2,7.38.13,1.48.42,2.66.86,3.54.44.88,1.14,1.6,2.08,2.15.95.55,2.61,1.07,4.99,1.55v3.44l-15.61.66h-3.97l.79-10.85-.99-.26c-2.78,2.95-5.19,5.17-7.24,6.65-2.05,1.48-4.23,2.66-6.55,3.54-2.31.88-4.8,1.32-7.44,1.32-7.23,0-12.81-2.75-16.74-8.24-3.93-5.49-5.89-13.42-5.89-23.79,0-7.23,1.28-13.38,3.84-18.43,2.56-5.05,6.01-8.81,10.35-11.28,4.34-2.47,9.23-3.71,14.65-3.71,2.91,0,5.56.23,7.94.7,2.38.47,4.83,1.22,7.34,2.28v-10.52Zm0,32.69c0-3.44-.16-6.19-.46-8.27-.31-2.07-.83-3.82-1.56-5.23-.73-1.41-1.71-2.6-2.94-3.57-1.24-.97-2.59-1.67-4.07-2.12-1.48-.44-3.25-.66-5.33-.66-5.65,0-9.95,2.26-12.9,6.78-2.96,4.52-4.43,11.02-4.43,19.49s1.21,14.91,3.64,19.32c2.43,4.41,6.11,6.62,11.05,6.62,1.94,0,3.55-.17,4.83-.49,1.28-.33,2.54-.86,3.77-1.59,1.23-.73,2.49-1.73,3.77-3.01,1.28-1.28,2.22-2.45,2.81-3.5.59-1.06,1.05-2.27,1.36-3.64.31-1.36.46-3.13.46-5.29v-14.82Z"/>
      </g>
    </g>
    <g id="Init_Cloud_LOGO_OFFICIAL_VERTICAL_ICON">
      <g>
        <polygon class="cls-2" points="77.02 114.08 83.23 103.31 84.67 100.83 92.61 87.07 83.26 70.85 64.48 70.83 56.54 84.59 55.11 87.07 47.17 100.83 47.21 100.9 39.56 114.15 48.93 130.39 67.68 130.39 77.06 114.15 77.02 114.08"/>
        <polygon class="cls-2" points="117.65 11.34 48.93 11.34 14.57 70.87 22.98 85.44 31.39 70.88 33.12 67.88 57.34 25.93 109.23 25.93 135.18 70.88 110.96 112.84 109.23 115.83 100.83 130.39 117.65 130.39 152.02 70.87 117.65 11.34"/>
        <polygon class="cls-1" points="57.35 25.93 83.26 70.85 109.23 25.93 57.35 25.93"/>
      </g>
    </g>
  </g>
</svg>